HIERARCHY
ROOT Hips
{
	OFFSET -0.001795 -0.223333 0.028219
	CHANNELS 6 Xposition Yposition Zposition Zrotation Yrotation Xrotation 
	JOINT LeftUpLeg
	{
		OFFSET 0.069520 -0.091406 -0.006815
		CHANNELS 3 Zrotation Yrotation Xrotation
		JOINT LeftLeg
		{
			OFFSET 0.034277 -0.375199 -0.004496
			CHANNELS 3 Zrotation Yrotation Xrotation
			JOINT LeftFoot
			{
				OFFSET -0.013596 -0.397961 -0.043693
				CHANNELS 3 Zrotation Yrotation Xrotation
				JOINT LeftToe
				{
					OFFSET 0.026358 -0.055791 0.119288
					CHANNELS 3 Zrotation Yrotation Xrotation
					End Site
					{
						OFFSET 0.000000 0.000000 0.000000
					}
				}
			}
		}
	}
	JOINT RightUpLeg
	{
		OFFSET -0.067670 -0.090522 -0.004320
		CHANNELS 3 Zrotation Yrotation Xrotation
		JOINT RightLeg
		{
			OFFSET -0.038290 -0.382569 -0.008850
			CHANNELS 3 Zrotation Yrotation Xrotation
			JOINT RightFoot
			{
				OFFSET 0.015774 -0.398415 -0.042312
				CHANNELS 3 Zrotation Yrotation Xrotation
				JOINT RightToe
				{
					OFFSET -0.025372 -0.048144 0.123348
					CHANNELS 3 Zrotation Yrotation Xrotation
					End Site
					{
						OFFSET 0.000000 0.000000 0.000000
					}
				}
			}
		}
	}
	JOINT Spine
	{
		OFFSET -0.002533 0.108963 -0.026696
		CHANNELS 3 Zrotation Yrotation Xrotation
		JOINT Spine1
		{
			OFFSET 0.005487 0.135180 0.001092
			CHANNELS 3 Zrotation Yrotation Xrotation
			JOINT Spine2
			{
				OFFSET 0.001457 0.052922 0.025425
				CHANNELS 3 Zrotation Yrotation Xrotation
				JOINT Neck
				{
					OFFSET -0.002778 0.213870 -0.042857
					CHANNELS 3 Zrotation Yrotation Xrotation
					JOINT Head
					{
						OFFSET 0.005152 0.064970 0.051349
						CHANNELS 3 Zrotation Yrotation Xrotation
						End Site
						{
							OFFSET 0.000000 0.000000 0.000000
						}
					}
				}
				JOINT LeftShoulder
				{
					OFFSET 0.078845 0.121749 -0.034090
					CHANNELS 3 Zrotation Yrotation Xrotation
					JOINT LeftArm
					{
						OFFSET 0.090977 0.030469 -0.008868
						CHANNELS 3 Zrotation Yrotation Xrotation
						JOINT LeftForeArm
						{
							OFFSET 0.259612 -0.012772 -0.027456
							CHANNELS 3 Zrotation Yrotation Xrotation
							JOINT LeftHand
							{
								OFFSET 0.249234 0.008986 -0.001171
								CHANNELS 3 Zrotation Yrotation Xrotation
								End Site
								{
									OFFSET 0.000000 0.000000 0.000000
								}
							}
						}
					}
				}
				JOINT RightShoulder
				{
					OFFSET -0.081759 0.118833 -0.038615
					CHANNELS 3 Zrotation Yrotation Xrotation
					JOINT RightArm
					{
						OFFSET -0.096012 0.032551 -0.009143
						CHANNELS 3 Zrotation Yrotation Xrotation
						JOINT RightForeArm
						{
							OFFSET -0.253742 -0.013329 -0.021401
							CHANNELS 3 Zrotation Yrotation Xrotation
							JOINT RightHand
							{
								OFFSET -0.255298 0.007772 -0.005559
								CHANNELS 3 Zrotation Yrotation Xrotation
								End Site
								{
									OFFSET 0.000000 0.000000 0.000000
								}
							}
						}
					}
				}
			}
		}
	}
}
MOTION
Frames: 7
Frame Time: 0.050000
0.000000 0.878980 0.000000 0.493221 -5.506307 -7.213908 4.321026 -1.071296 -26.655243 -1.433601 0.183042 42.219027 4.303620 8.082392 -3.581522 0.000000 0.000000 0.000000 0.361092 3.119776 -26.682327 -0.055211 3.110913 43.900004 -3.038009 -4.959077 -5.945644 0.000000 0.000000 0.000000 6.138501 -1.792620 23.210455 -1.777994 0.918275 4.589750 -3.440163 5.428247 8.211360 9.848739 -8.224281 -0.541573 0.000000 0.000000 0.000000 -12.734164 -22.224762 8.529940 -51.447166 -17.024737 0.841705 8.084226 -30.189751 -1.169552 0.000000 0.000000 0.000000 12.073628 16.403809 7.206663 52.282640 20.741654 3.530200 -6.690890 28.773435 -0.381269 0.000000 0.000000 0.000000 
0.006920 0.866681 0.007152 -0.453885 -7.251536 -6.146950 5.772113 -0.594310 -28.945279 -1.191775 0.433684 45.062305 4.493976 8.486254 -3.728522 0.000000 0.000000 0.000000 1.060495 3.655549 -28.584821 0.209641 3.564980 46.519655 -3.252725 -4.605035 -7.652753 0.000000 0.000000 0.000000 7.658558 -1.990392 22.983349 -1.899667 1.012570 4.810828 -4.367104 6.653500 9.195178 10.888106 -9.281462 -0.061906 0.000000 0.000000 0.000000 -14.622808 -23.366343 9.182245 -49.098128 -18.376330 1.316755 10.367890 -27.223978 -1.618420 0.000000 0.000000 0.000000 11.288157 17.321110 7.679507 53.715254 22.246801 4.341557 -8.590054 26.868481 -0.708966 0.000000 0.000000 0.000000 
0.013625 0.855816 0.015170 -0.487016 -7.409826 -6.441360 4.933186 -0.825591 -30.218551 0.102988 -0.209911 47.976123 5.332836 10.040971 -5.229234 0.000000 0.000000 0.000000 0.141023 3.696029 -30.230756 1.912190 3.033054 50.411465 -3.927065 -5.837195 -9.397613 0.000000 0.000000 0.000000 7.247320 -2.026389 24.656306 -1.662119 0.905996 5.791564 -4.664104 6.814618 8.342360 11.820432 -9.599610 -1.709862 0.000000 0.000000 0.000000 -13.975837 -24.182902 9.417741 -49.602121 -19.432310 1.858509 8.442505 -24.988223 -1.065230 0.000000 0.000000 0.000000 12.611586 17.421029 7.962398 51.379268 22.551576 4.183724 -7.872311 28.037868 -0.600367 0.000000 0.000000 0.000000 
0.019788 0.847504 0.024758 -1.185761 -8.878732 -7.170907 5.080897 -0.639662 -29.266801 0.691910 -0.135797 51.533992 6.094810 11.614480 -6.436732 0.000000 0.000000 0.000000 1.368464 4.224208 -30.845901 1.538406 4.098485 54.569954 -3.470180 -4.564766 -8.955567 0.000000 0.000000 0.000000 7.360505 -1.976970 25.174885 -1.788304 1.045474 7.186381 -4.991533 6.321801 8.378669 11.319259 -9.302111 -1.301768 0.000000 0.000000 0.000000 -14.367995 -24.647726 9.891545 -49.521365 -19.250137 1.749259 9.869942 -23.233513 -1.234352 0.000000 0.000000 0.000000 13.214496 18.788733 8.498914 50.942614 22.976948 4.325766 -8.202938 27.517848 -0.720307 0.000000 0.000000 0.000000 
0.025489 0.840363 0.035959 -1.661938 -8.521127 -7.443630 4.615651 -0.808676 -29.444051 1.066865 -0.446491 53.607929 6.872549 13.249497 -7.568888 0.000000 0.000000 0.000000 0.924434 4.013116 -30.434500 2.472071 3.613341 56.580566 -3.746062 -5.220026 -9.521794 0.000000 0.000000 0.000000 7.339097 -2.012603 25.411509 -1.631139 0.973354 8.167851 -4.860384 5.688347 7.632358 11.340740 -9.172211 -1.728682 0.000000 0.000000 0.000000 -15.806193 -25.169642 10.407761 -49.658182 -19.035181 1.763101 9.755506 -20.002637 -1.019681 0.000000 0.000000 0.000000 13.978377 18.655955 8.457246 50.906215 22.754973 4.289828 -8.541082 27.499465 -0.822988 0.000000 0.000000 0.000000 
0.030846 0.839677 0.049319 -2.323672 -8.357160 -7.720916 4.478902 -0.843902 -27.597761 1.492625 -0.782568 54.186591 6.902819 13.063739 -9.748434 0.000000 0.000000 0.000000 1.821694 4.102316 -29.666969 1.786158 4.064344 57.164168 -3.644015 -4.785956 -9.751213 0.000000 0.000000 0.000000 7.601513 -2.036886 24.816026 -1.384219 0.818815 8.143704 -5.364771 5.495300 7.711776 11.646288 -9.760337 -0.577488 0.000000 0.000000 0.000000 -15.902883 -25.012401 10.339326 -50.182532 -18.457879 1.531126 8.982454 -18.918791 -0.829831 0.000000 0.000000 0.000000 15.360750 18.556303 8.611018 51.559945 22.275106 4.126199 -8.251239 26.485022 -0.731838 0.000000 0.000000 0.000000 
0.036448 0.846152 0.063282 -2.275679 -8.196181 -7.727383 4.035365 -0.946580 -26.064364 0.873106 -0.408244 52.831221 7.053437 13.470315 -9.794398 0.000000 0.000000 0.000000 2.046666 3.865449 -28.001782 0.926161 4.586932 56.798558 -3.555028 -5.048879 -8.750378 0.000000 0.000000 0.000000 7.276127 -1.868506 23.175738 -1.736911 1.027458 8.169307 -5.620394 5.016344 7.930381 11.467007 -9.849743 0.262605 0.000000 0.000000 0.000000 -16.626469 -23.992898 10.037531 -50.590091 -16.949484 0.863297 8.554577 -19.034489 -0.748983 0.000000 0.000000 0.000000 15.951616 17.938048 8.287577 52.631150 20.521481 3.436611 -6.376838 27.085557 -0.353159 0.000000 0.000000 0.000000 
